<svg width="24" height="25" viewBox="0 0 24 25" fill="none" xmlns="http://www.w3.org/2000/svg">
<path d="M21 18.4668V10.6503C21 9.43937 20.4604 8.2925 19.5301 7.52652L14.5301 3.40935C13.0577 2.19688 10.9423 2.19689 9.46986 3.40935L4.46986 7.52652C3.53964 8.2925 3 9.43937 3 10.6503V18.4668C3 20.6943 4.79086 22.5 7 22.5H17C19.2091 22.5 21 20.6943 21 18.4668Z" stroke="#82C8E5" stroke-width="1.5" stroke-linejoin="round"/>
<path d="M15.5 14.9C15.5 12.4147 12 9.5 12 9.5C12 9.5 8.5 12.4147 8.5 14.9C8.5 17.3853 10.3431 18.5 12 18.5C13.6569 18.5 15.5 17.3853 15.5 14.9Z" stroke="#82C8E5" stroke-width="1.5" stroke-linejoin="round"/>
</svg>
