<svg width="24" height="25" viewBox="0 0 24 25" fill="none" xmlns="http://www.w3.org/2000/svg">
<g clip-path="url(#clip0_8551_1252)">
<path d="M19.5405 10.8897C18.7659 9.73288 17.9197 8.84812 17.1006 8.31004C17.293 8.01816 17.3954 7.67621 17.3951 7.32665C17.3951 6.59329 16.9529 5.96165 16.3213 5.68321L16.9871 3.94677C17.0912 3.67504 17.4081 2.84798 16.9346 2.2303C16.4582 1.60907 15.604 1.69776 14.9801 1.76254C14.8334 1.77777 14.6948 1.79216 14.5976 1.79352C14.1275 1.79948 13.857 1.62121 13.5147 1.39504C13.1633 1.16277 12.7279 0.875006 12.1077 0.875006C12.0989 0.875006 12.09 0.8751 12.0811 0.875194C11.447 0.866381 11.003 1.15958 10.6462 1.39518C10.3039 1.62135 10.0323 1.80041 9.56361 1.79357C9.46611 1.79221 9.32755 1.77782 9.18083 1.76258C8.55692 1.6978 7.70272 1.60912 7.22638 2.23035C6.75275 2.84798 7.06972 3.67504 7.17392 3.94687L7.8396 5.68326C7.2081 5.96169 6.76592 6.59333 6.76592 7.32665C6.76565 7.64664 6.85144 7.96082 7.01431 8.23626C6.15969 8.76519 5.27019 9.67827 4.4592 10.8897C3.10855 12.9072 2.33389 15.2234 2.33389 17.2445C2.33389 19.2492 3.09303 20.9285 4.52928 22.1009C6.17478 23.4441 8.68831 24.1251 12.0001 24.1251C15.3118 24.1251 17.8253 23.4441 19.4708 22.1009C20.907 20.9286 21.6662 19.2494 21.6662 17.2447C21.6662 15.2235 20.8914 12.9073 19.5405 10.8898L19.5405 10.8897ZM9.03556 3.16129C9.21449 3.17985 9.38352 3.19743 9.5443 3.19968C10.4471 3.21257 11.0102 2.8401 11.4213 2.5686C11.7132 2.3758 11.8648 2.2813 12.0551 2.2813C12.059 2.2813 12.063 2.2813 12.0669 2.2814L12.0811 2.28168L12.0954 2.2814C12.2905 2.27812 12.442 2.37173 12.7393 2.56823C13.1504 2.83987 13.7123 3.21149 14.6169 3.19968C14.7774 3.19743 14.9464 3.1799 15.1254 3.16129C15.2997 3.14319 15.5911 3.11296 15.7694 3.12491C15.7566 3.19448 15.7297 3.29802 15.674 3.44348L14.8736 5.53129H9.28733L8.48699 3.44352C8.43125 3.29802 8.4043 3.19448 8.3915 3.12491C8.5701 3.11287 8.86128 3.14319 9.03556 3.16129ZM8.56124 7.71576C8.35035 7.71576 8.17213 7.53758 8.17213 7.32665C8.17213 7.11571 8.35035 6.93754 8.56124 6.93754H15.5997C15.8106 6.93754 15.9888 7.11571 15.9888 7.32665C15.9888 7.53758 15.8106 7.71576 15.5997 7.71576H8.56124ZM18.5815 21.0115C17.1936 22.1444 14.9793 22.7188 12.0001 22.7188C9.02089 22.7188 6.80642 22.1443 5.41855 21.0114C4.30485 20.1023 3.74014 18.8349 3.74014 17.2445C3.74014 15.5206 4.4458 13.4375 5.62775 11.672C6.74853 9.99791 7.96325 9.12201 8.58388 9.12201H15.415C16.0359 9.12201 17.251 9.99796 18.372 11.6721C19.5542 13.4376 20.2599 15.5208 20.2599 17.2447C20.2599 18.8351 19.6952 20.1024 18.5815 21.0115H18.5815ZM14.6111 13.5433L10.5238 19.1268C10.4586 19.2161 10.3731 19.2887 10.2744 19.3388C10.1757 19.3888 10.0666 19.4148 9.95596 19.4146C9.81181 19.4146 9.66636 19.3705 9.54116 19.2788C9.2278 19.0495 9.15974 18.6095 9.38914 18.2961L13.4764 12.7127C13.7058 12.3993 14.1458 12.3313 14.459 12.5607C14.7724 12.79 14.8405 13.23 14.6111 13.5434V13.5433ZM14.3493 15.5341C13.4341 15.5341 12.6895 16.2793 12.6895 17.1953V17.7547C12.6895 18.6699 13.4341 19.4145 14.3493 19.4145C15.2645 19.4145 16.0105 18.6699 16.0105 17.7547V17.1953C16.0105 16.2793 15.2653 15.5341 14.3493 15.5341ZM14.6042 17.7547C14.6042 17.8921 14.4875 18.0083 14.3493 18.0083C14.2119 18.0083 14.0958 17.8921 14.0958 17.7547V17.1953C14.0958 17.0571 14.2119 16.9404 14.3493 16.9404C14.4875 16.9404 14.6042 17.0571 14.6042 17.1953V17.7547ZM11.3106 14.6454V14.086C11.3106 13.17 10.5655 12.4248 9.64949 12.4248C8.7335 12.4248 7.98833 13.17 7.98833 14.086V14.6454C7.98833 15.5614 8.7335 16.3065 9.64949 16.3065C10.5655 16.3065 11.3106 15.5613 11.3106 14.6454ZM9.39458 14.6454V14.086C9.39458 13.9478 9.5113 13.8311 9.64949 13.8311C9.78767 13.8311 9.90439 13.9478 9.90439 14.086V14.6454C9.90439 14.7836 9.78767 14.9003 9.64949 14.9003C9.5113 14.9003 9.39458 14.7836 9.39458 14.6454Z" fill="#777980"/>
</g>
<defs>
<clipPath id="clip0_8551_1252">
<rect width="24" height="24" fill="white" transform="translate(0 0.5)"/>
</clipPath>
</defs>
</svg>
