<svg width="24" height="25" viewBox="0 0 24 25" fill="none" xmlns="http://www.w3.org/2000/svg">
<path d="M19.8375 16.8874V10.2499C19.8375 9.42491 19.4625 8.89991 18.9 8.33741L14.9625 4.39991C14.025 3.46241 13.1625 3.49991 11.8875 3.49991H8.1C7.35 3.49991 6.4125 3.34991 5.6625 3.57491C4.9125 3.76241 4.35 4.47491 4.2 5.22491C4.0125 6.27491 4.1625 7.43741 4.1625 8.48741V12.0874C4.1625 14.5624 4.125 16.9999 4.1625 19.4749C4.1625 20.6749 5.025 21.5374 6.225 21.5749C8.1375 21.6124 10.05 21.5749 11.9625 21.5749C13.9125 21.5749 15.825 21.6124 17.775 21.5749C18.975 21.5374 19.8375 20.6374 19.8375 19.4374V16.8874ZM14.3625 5.37491L14.8125 5.82491L15.6375 6.64991L17.925 8.93741H15.15C14.625 8.93741 14.3625 8.56241 14.3625 8.07491V5.37491ZM17.8125 20.4124C16.275 20.4874 14.7 20.4124 13.1625 20.4124H6.75C6.1125 20.4124 5.3625 20.4124 5.2875 19.5124C5.25 19.0624 5.2875 18.6124 5.2875 18.1624V5.44991C5.325 4.39991 6.4875 4.58741 7.2375 4.58741H10.7625C11.5875 4.58741 12.4125 4.54991 13.2 4.58741H13.2375V8.03741C13.2375 8.37491 13.275 8.71241 13.425 9.01241C13.725 9.61241 14.325 9.98741 14.9625 10.0624C15.45 10.0999 15.975 10.0624 16.5 10.0624H18.7125C18.75 10.6624 18.7125 11.2999 18.7125 11.8999V18.7249C18.7125 19.3999 18.825 20.3749 17.8125 20.4124Z" fill="#777980"/>
<path d="M12.1875 10.8125C11.925 10.625 11.6625 10.55 11.3625 10.85L10.725 11.4875L9.45001 12.7625C8.92501 13.2875 9.75 14.075 10.2375 13.55L11.25 12.5375V15.0125C11.25 15.3125 11.5125 15.575 11.8125 15.575C12.1125 15.575 12.375 15.3125 12.375 15.0125V12.5375L13.3875 13.55C13.9125 14.075 14.7 13.25 14.175 12.7625L13.0125 11.6C12.75 11.3375 12.4875 11.0375 12.1875 10.8125ZM10.275 17.525H13.275C13.575 17.525 13.8375 17.2625 13.8375 16.9625C13.8375 16.6625 13.575 16.4 13.275 16.4H10.275C9.975 16.4 9.7125 16.6625 9.7125 16.9625C9.75 17.3 9.975 17.525 10.275 17.525ZM13.3125 18.1625H10.3125C10.0125 18.1625 9.75 18.425 9.75 18.725C9.75 19.025 10.0125 19.2875 10.3125 19.2875H13.3125C13.6125 19.2875 13.875 19.025 13.875 18.725C13.875 18.425 13.65 18.1625 13.3125 18.1625Z" fill="#777980"/>
</svg>
