<svg width="34" height="34" viewBox="0 0 34 34" fill="none" xmlns="http://www.w3.org/2000/svg">
<rect width="34" height="34" rx="17" fill="#F6F8FA"/>
<path d="M18.5043 19.0283C18.0565 19.3268 17.5363 19.4847 17 19.4847C16.4637 19.4847 15.9436 19.3268 15.4957 19.0283L8.11985 14.1109C8.07913 14.0837 8.03917 14.0553 8 14.0259V22.0836C8 23.0075 8.74971 23.7406 9.65702 23.7406H24.3429C25.2668 23.7406 26 22.9909 26 22.0836V14.0259C25.9607 14.0554 25.9207 14.0838 25.8799 14.111L18.5043 19.0283Z" fill="#A5A5AB"/>
<path d="M8.70488 13.2333L16.0808 18.1508C16.36 18.3369 16.68 18.43 17 18.43C17.32 18.43 17.64 18.3369 17.9192 18.1508L25.2951 13.2333C25.7365 12.9393 26 12.4471 26 11.9159C26 11.0025 25.2569 10.2594 24.3435 10.2594H9.65646C8.7431 10.2594 8 11.0025 8 11.9167C7.99973 12.1773 8.06395 12.4339 8.18694 12.6636C8.30993 12.8934 8.48787 13.0891 8.70488 13.2333Z" fill="#A5A5AB"/>
</svg>
