<svg width="16" height="16" viewBox="0 0 16 16" fill="none" xmlns="http://www.w3.org/2000/svg">
<g clip-path="url(#clip0_8260_410)">
<ellipse cx="8.00004" cy="8.00004" rx="2.66667" ry="6.66667" stroke="white" stroke-width="1.5"/>
<path d="M14.6642 7.81373C13.4626 8.80109 10.93 9.48152 8.00004 9.48152C5.07012 9.48152 2.5375 8.80109 1.33593 7.81373M14.6642 7.81373C14.5655 4.21798 11.6196 1.33337 8.00004 1.33337C4.38045 1.33337 1.43459 4.21798 1.33593 7.81373M14.6642 7.81373C14.6659 7.87563 14.6667 7.93774 14.6667 8.00004C14.6667 11.6819 11.6819 14.6667 8.00004 14.6667C4.31814 14.6667 1.33337 11.6819 1.33337 8.00004C1.33337 7.93774 1.33423 7.87563 1.33593 7.81373" stroke="white" stroke-width="1.5"/>
</g>
<defs>
<clipPath id="clip0_8260_410">
<rect width="16" height="16" fill="white"/>
</clipPath>
</defs>
</svg>
