<svg width="40" height="40" viewBox="0 0 40 40" fill="none" xmlns="http://www.w3.org/2000/svg">
<rect width="40" height="40" rx="20" fill="#FEECEE"/>
<g clip-path="url(#clip0_8260_793)">
<path d="M21.9999 20.6667C21.6312 20.6667 21.3333 20.9654 21.3333 21.3333V24C21.3333 24.3673 21.0346 24.6667 20.6665 24.6667H18.6666V14.6668C18.6666 14.0974 18.3039 13.5888 17.7586 13.3994L17.5612 13.3334H20.6665C21.0346 13.3334 21.3333 13.6327 21.3333 14.0001V16.0001C21.3333 16.368 21.6312 16.6667 21.9999 16.6667C22.3686 16.6667 22.6665 16.368 22.6665 16.0001V14.0001C22.6665 12.8975 21.7692 12.0002 20.6665 12.0002H13.5C13.4746 12.0002 13.4534 12.0115 13.4287 12.0148C13.3966 12.0121 13.366 12.0001 13.3334 12.0001C12.598 12.0002 12 12.5981 12 13.3334V25.3333C12 25.9026 12.3627 26.4113 12.908 26.6006L16.92 27.938C17.056 27.98 17.1912 28 17.3333 28C18.0686 28 18.6665 27.402 18.6665 26.6666V26H20.6665C21.7692 26 22.6665 25.1027 22.6665 24V21.3333C22.6665 20.9654 22.3685 20.6667 21.9999 20.6667H21.9999Z" fill="#EB3D4D"/>
<path d="M27.8045 18.1955L25.1378 15.5289C25.0446 15.4356 24.9258 15.372 24.7965 15.3462C24.6671 15.3205 24.5331 15.3336 24.4112 15.3841C24.1626 15.4875 23.9998 15.7308 23.9998 16.0002V18.0001H21.3332C20.9652 18.0001 20.6665 18.2987 20.6665 18.6668C20.6665 19.0348 20.9652 19.3334 21.3332 19.3334H23.9998V21.3334C23.9998 21.6028 24.1626 21.846 24.4112 21.9494C24.5331 21.9999 24.6671 22.0131 24.7964 21.9873C24.9258 21.9615 25.0446 21.898 25.1378 21.8048L27.8045 19.1381C28.0651 18.8774 28.0651 18.4561 27.8045 18.1955Z" fill="#EB3D4D"/>
</g>
<defs>
<clipPath id="clip0_8260_793">
<rect width="16" height="16" fill="white" transform="translate(12 12)"/>
</clipPath>
</defs>
</svg>
