<svg width="32" height="32" viewBox="0 0 32 32" fill="none" xmlns="http://www.w3.org/2000/svg">
<rect width="32" height="32" rx="16" fill="#F6F8FA"/>
<g clip-path="url(#clip0_8260_779)">
<path d="M15.907 15.7073C16.9658 15.7073 17.8827 15.3275 18.6318 14.5782C19.381 13.8291 19.7607 12.9124 19.7607 11.8535C19.7607 10.7949 19.381 9.87818 18.6317 9.12878C17.8824 8.37975 16.9657 8 15.907 8C14.848 8 13.9314 8.37975 13.1822 9.1289C12.4331 9.87806 12.0532 10.7948 12.0532 11.8535C12.0532 12.9124 12.4331 13.8292 13.1824 14.5783C13.9316 15.3274 14.8484 15.7073 15.907 15.7073ZM22.65 20.3032C22.6284 19.9914 22.5847 19.6513 22.5203 19.2922C22.4554 18.9304 22.3718 18.5883 22.2717 18.2757C22.1683 17.9526 22.0277 17.6335 21.8539 17.3277C21.6734 17.0103 21.4615 16.734 21.2237 16.5066C20.975 16.2687 20.6706 16.0774 20.3186 15.9378C19.9677 15.7991 19.5789 15.7288 19.1631 15.7288C18.9997 15.7288 18.8418 15.7958 18.5367 15.9944C18.3199 16.1356 18.1024 16.2758 17.8842 16.415C17.6747 16.5486 17.3907 16.6737 17.04 16.787C16.6978 16.8977 16.3504 16.9538 16.0075 16.9538C15.6647 16.9538 15.3174 16.8977 14.9748 16.787C14.6245 16.6738 14.3406 16.5487 14.1312 16.4151C13.8884 16.26 13.6687 16.1184 13.4781 15.9942C13.1735 15.7956 13.0154 15.7286 12.852 15.7286C12.436 15.7286 12.0474 15.799 11.6966 15.938C11.3448 16.0772 11.0403 16.2685 10.7914 16.5067C10.5537 16.7342 10.3417 17.0104 10.1615 17.3277C9.98781 17.6335 9.84718 17.9525 9.74365 18.2758C9.64365 18.5885 9.56006 18.9304 9.49512 19.2922C9.43078 19.6508 9.38709 19.991 9.36547 20.3035C9.34396 20.618 9.33329 20.9331 9.3335 21.2484C9.3335 22.0836 9.599 22.7597 10.1226 23.2583C10.6397 23.7504 11.3238 24.0001 12.1559 24.0001H19.86C20.692 24.0001 21.3759 23.7506 21.8931 23.2584C22.4168 22.7601 22.6823 22.0838 22.6823 21.2482C22.6822 20.9259 22.6714 20.6079 22.65 20.3032Z" fill="#A5A5AB"/>
</g>
<defs>
<clipPath id="clip0_8260_779">
<rect width="16" height="16" fill="white" transform="translate(8 8)"/>
</clipPath>
</defs>
</svg>
